PathFileType	4	(X/Y/Z)	 s11c0403.trc
DataRate	CameraRate	NumFrames	NumMarkers	Units	OrigDataRate	OrigDataStartFrame	OrigNumFrames
200	200	4	48	mm	200	751	2000
Frame#	Time	racr			lacr			c7			jug			rlel			rdr			llel			ldr			s2			lic			ric			lasi			rasi			rpsi			lpsi			rgt			lgt			rth1			rth2			rth3			rth4			rlfc			rmfc			rsh1			rsh2			rsh3			rsh4			rlmal			rcal			rtoe			rmt5			lth1			lth2			lth4			lth3			llfc			lmfc			llmal			lcal			lmt5			lsh1			lsh2			lsh3			lsh4			ltoe			SBIKE			LBIKE			RBIKE			
		X1	Y1	Z1	X2	Y2	Z2	X3	Y3	Z3	X4	Y4	Z4	X5	Y5	Z5	X6	Y6	Z6	X7	Y7	Z7	X8	Y8	Z8	X9	Y9	Z9	X10	Y10	Z10	X11	Y11	Z11	X12	Y12	Z12	X13	Y13	Z13	X14	Y14	Z14	X15	Y15	Z15	X16	Y16	Z16	X17	Y17	Z17	X18	Y18	Z18	X19	Y19	Z19	X20	Y20	Z20	X21	Y21	Z21	X22	Y22	Z22	X23	Y23	Z23	X24	Y24	Z24	X25	Y25	Z25	X26	Y26	Z26	X27	Y27	Z27	X28	Y28	Z28	X29	Y29	Z29	X30	Y30	Z30	X31	Y31	Z31	X32	Y32	Z32	X33	Y33	Z33	X34	Y34	Z34	X35	Y35	Z35	X36	Y36	Z36	X37	Y37	Z37	X38	Y38	Z38	X39	Y39	Z39	X40	Y40	Z40	X41	Y41	Z41	X42	Y42	Z42	X43	Y43	Z43	X44	Y44	Z44	X45	Y45	Z45	X46	Y46	Z46	X47	Y47	Z47	X48	Y48	Z48	
751	3.7550	823.096698	1357.158392	-61.110114	789.927082	1347.280760	-419.212702	792.624286	1480.751071	-235.949778	772.204294	1296.563281	-242.481974	630.437178	1165.847377	57.538624	776.710880	969.992668	-37.798303	563.128763	1152.986158	-554.404230	776.886119	959.298299	-448.716159	203.319146	1304.666082	-184.532375	393.339284	1291.285755	-411.341824	434.067997	1262.892510	-12.017123	413.068940	1205.558149	-381.565034	451.767852	1195.595520	-50.085304	258.547275	1369.089462	-131.488508	250.384307	1369.959873	-224.190829	341.783227	1121.973080	6.397478	292.225436	1178.467783	-413.195427	403.544830	991.180233	-3.689354	458.978203	923.682514	-24.112481	471.883896	838.713626	-41.626497	489.089714	940.482826	-37.975946	507.338643	737.871009	-66.065179	488.014009	729.757963	-194.541824	374.030173	641.750072	-54.243466	314.740228	580.397511	-74.643210	231.690376	552.906432	-75.982325	330.903847	563.231025	-107.060873	112.973240	491.452567	-88.216453	63.488461	533.231373	-135.876767	194.411859	277.626848	-142.231025	132.719937	317.158885	-72.672880	384.979557	1054.469466	-430.978401	448.523114	997.870617	-427.011633	479.880650	1016.744620	-419.729922	476.291279	912.345451	-424.973346	543.267457	784.028058	-402.004607	551.908480	768.221778	-275.699158	326.152180	406.939932	-404.417483	257.873137	374.866259	-373.541335	448.597867	288.447017	-438.946067	483.178904	670.821625	-428.089334	464.998685	588.132541	-415.393328	407.996006	520.506218	-415.795280	492.061757	576.684396	-390.075084	545.299825	291.910711	-368.964402	-169.831786	972.372826	-175.150339	1.244801	82.526130	-461.028392	-15.395661	81.378024	-62.416007	
752	3.7600	822.109485	1357.456424	-60.005977	790.459352	1346.743589	-419.273698	791.746364	1480.588742	-235.950936	772.884128	1296.515345	-241.786094	630.067601	1165.608681	58.489895	776.552769	969.862222	-37.979947	562.419269	1152.938863	-553.550298	775.173574	959.302479	-450.468841	202.927974	1301.742462	-185.565700	393.228389	1287.390989	-412.276322	434.405805	1262.087601	-12.676768	413.859915	1202.183801	-382.260882	451.679456	1194.639765	-50.947899	257.938601	1366.888993	-133.426938	249.892045	1366.703203	-226.186238	342.310279	1120.949618	6.612730	291.792621	1172.916598	-413.552638	404.994664	990.537693	-3.348316	461.843335	924.119653	-23.526324	477.197918	839.662143	-40.493608	491.627805	941.647169	-37.623308	513.696673	739.688090	-65.082711	493.883326	730.604579	-194.311303	379.077920	645.272861	-52.336817	318.257830	584.879429	-73.927769	235.094060	558.431352	-75.288219	334.688104	567.058318	-105.523055	115.675535	499.691802	-87.727818	66.042183	541.697418	-135.701057	196.296369	286.198774	-142.640154	134.802793	325.510750	-72.574317	382.671199	1047.924130	-431.302216	445.378651	990.378186	-427.411636	477.105012	1008.726048	-420.438938	471.618379	904.443329	-424.733803	536.124933	775.989098	-402.237446	545.339405	760.166262	-275.668280	322.875020	397.075956	-404.105083	255.059187	364.717182	-373.575368	446.109205	279.333297	-439.092797	476.424911	662.843956	-428.051082	459.246308	579.940131	-415.522322	403.012572	511.659233	-415.875808	486.600310	568.695193	-390.421538	542.910759	283.127981	-369.121160	-169.778647	972.299341	-175.251047	1.255020	82.489717	-461.025658	-15.413738	81.322508	-62.412927	
753	3.7650	821.170012	1357.897234	-58.791429	790.993155	1346.492621	-419.089516	790.701978	1480.451392	-235.878549	773.615441	1296.643966	-240.955444	629.760172	1165.357005	59.397146	776.451240	969.680781	-38.394030	561.855357	1153.059419	-552.591056	773.519879	958.746245	-450.783255	202.489383	1298.622454	-186.802313	393.155668	1283.538922	-413.298032	433.988545	1260.837957	-13.892435	414.744148	1198.845004	-382.979120	451.580716	1193.545926	-51.748442	257.463540	1364.136080	-134.976470	249.308680	1363.249506	-228.254937	342.919764	1119.587426	6.715440	291.387321	1167.361192	-413.907624	406.752555	990.050728	-3.139353	465.130710	924.789056	-22.897442	482.412123	840.546472	-39.673061	494.507358	943.056210	-37.144217	520.348329	741.607484	-64.011633	500.233331	731.992212	-193.636043	383.962481	648.956397	-51.575314	322.433870	589.557797	-73.172566	239.008464	564.173065	-74.695863	338.722899	571.229923	-104.655666	118.539746	508.054522	-87.289288	69.068318	550.576641	-135.252387	198.129432	293.830119	-143.769528	137.297815	334.168752	-72.524813	380.522036	1041.441294	-431.811942	442.107262	982.681557	-427.815725	474.237366	1000.467305	-421.256824	466.778445	895.972817	-423.755626	529.010638	767.638742	-401.578513	538.553289	752.213413	-275.571472	319.407524	387.371231	-403.969996	251.748852	355.060380	-373.629946	443.261830	270.307770	-439.213809	469.353075	654.957882	-427.918304	453.385158	571.474256	-414.962158	397.821721	502.911213	-415.759468	480.920080	560.754567	-390.708152	540.018864	274.376626	-369.165220	-169.641477	971.933597	-175.711077	1.211210	82.560354	-460.956475	-15.431630	81.268123	-62.402654	
754	3.7700	820.173742	1358.433663	-57.636204	791.493690	1346.525085	-418.693560	789.607469	1480.389782	-235.437730	774.229943	1296.876914	-240.214469	629.351766	1165.041980	60.294073	776.421989	969.551725	-38.880800	561.372073	1153.352707	-551.529316	771.778815	957.907551	-450.285492	202.025845	1295.293137	-188.216683	393.063004	1279.778624	-414.382008	434.225459	1259.441950	-14.468865	415.786370	1195.600583	-383.800304	451.388094	1192.250212	-52.927719	263.234755	1359.100883	-140.349069	248.513899	1359.674394	-230.179704	343.358021	1118.089966	6.697345	291.011612	1161.610428	-414.562991	408.822057	989.429308	-2.749685	468.613069	925.643594	-22.339109	488.222479	841.761179	-38.771813	497.674873	944.329435	-36.804179	527.173208	743.749176	-62.816885	508.078794	733.115499	-192.435414	389.576408	652.995605	-50.648848	327.330815	594.209973	-72.371100	243.595876	570.061269	-74.009968	343.597770	575.885748	-103.612947	121.758540	516.637437	-86.855747	72.644283	559.178287	-134.871849	201.056120	302.365167	-143.751860	140.353792	342.621938	-72.535861	378.302224	1034.703462	-432.332668	438.690225	974.837089	-428.206531	471.021312	992.001701	-422.440614	461.654019	887.687449	-423.152247	521.594487	759.670307	-401.443395	531.565361	744.727719	-275.305554	315.702922	377.978214	-403.949667	248.309081	345.667354	-373.670269	439.982693	261.408897	-439.307234	462.211882	646.997119	-427.678226	447.148330	563.456667	-414.871598	392.357197	494.251044	-415.549716	475.138184	553.257088	-391.270350	536.837958	265.648066	-369.253047	-169.808655	972.168546	-175.378842	1.173246	82.460780	-460.922695	-15.440900	81.263384	-62.402358	
